<?xml version="1.0" standalone="no"?>
 <!DOCTYPE svg PUBLIC "-//W3C//DTD SVG 1.1//EN" 
 "http://www.w3.org/Graphics/SVG/1.1/DTD/svg11.dtd"> 
<svg
  xmlns:svg="http://www.w3.org/2000/svg"
  xmlns="http://www.w3.org/2000/svg"
  xmlns:xlink="http://www.w3.org/1999/xlink"
  version="1.1"
  width="29.700220cm" height="21.000720cm" viewBox="0 0 116930 82680">
<title>SVG Picture created as RI277D-Edge_Cuts.svg date 2020/10/10 16:41:36 </title>
  <desc>Picture generated by PCBNEW </desc>
<g style="fill:#000000; fill-opacity:1;stroke:#000000; stroke-opacity:1;
stroke-linecap:round; stroke-linejoin:round;"
 transform="translate(0 0) scale(1 1)">
</g>
<g style="fill:#000000; fill-opacity:0.0; 
stroke:#000000; stroke-width:-0.000393701; stroke-opacity:1; 
stroke-linecap:round; stroke-linejoin:round;">
</g>
<g style="fill:#000000; fill-opacity:0.0; 
stroke:#000000; stroke-width:59.0551; stroke-opacity:1; 
stroke-linecap:round; stroke-linejoin:round;">
<path d="M102000 20500
L102000 35000
" />
<path d="M90000 35500
L104500 35500
" />
<path d="M90000 60000
L90000 35500
" />
<path d="M104500 35500
L104500 60000
" />
<path d="M102000 35000
L77500 35000
" />
<path d="M77500 35000
L77500 20500
" />
<path d="M77500 20500
L102000 20500
" />
<path d="M104500 60000
L90000 60000
" />
<path d="M89500 60000
L75000 60000
" />
<path d="M75000 60000
L75000 35500
" />
<path d="M75000 35500
L89500 35500
" />
<path d="M89500 35500
L89500 60000
" />
<path d="M72000 20500
L72000 35000
" />
<path d="M60000 35500
L74500 35500
" />
<path d="M60000 60000
L60000 35500
" />
<path d="M74500 35500
L74500 60000
" />
<path d="M72000 35000
L47500 35000
" />
<path d="M47500 35000
L47500 20500
" />
<path d="M47500 20500
L72000 20500
" />
<path d="M74500 60000
L60000 60000
" />
<path d="M59500 60000
L45000 60000
" />
<path d="M45000 60000
L45000 35500
" />
<path d="M45000 35500
L59500 35500
" />
<path d="M59500 35500
L59500 60000
" />
<path d="M37000 20500
L37000 35000
" />
<path d="M37000 35000
L12500 35000
" />
<path d="M12500 35000
L12500 20500
" />
<path d="M12500 20500
L37000 20500
" />
<path d="M39500 60000
L25000 60000
" />
<path d="M25000 60000
L25000 35500
" />
<path d="M25000 35500
L39500 35500
" />
<path d="M39500 35500
L39500 60000
" />
<path d="M24500 35500
L24500 60000
" />
<path d="M10000 35500
L24500 35500
" />
<path d="M10000 60000
L10000 35500
" />
<path d="M24500 60000
L10000 60000
" />
<g >
</g>
<g >
</g>
<g >
</g>
<g >
</g>
<g >
</g>
<g >
</g>
<g >
</g>
<g >
</g>
<g >
</g>
<g >
</g>
<g >
</g>
<g >
</g>
<g >
</g>
<g >
</g>
<g >
</g>
<g >
</g>
<g >
</g>
<g >
</g>
<g >
</g>
<g >
</g>
<g >
</g>
<g >
</g>
<g >
</g>
<g >
</g>
<g >
</g>
<g >
</g>
<g >
</g>
<g >
</g>
<g >
</g>
<g >
</g>
<g >
</g>
<g >
</g>
<g >
</g>
<g >
</g>
<g >
</g>
<g >
</g>
<g >
</g>
<g >
</g>
<g >
</g>
<g >
</g>
<g >
</g>
<g >
</g>
<g >
</g>
<g >
</g>
<g >
</g>
<g >
</g>
<g >
</g>
<g >
</g>
<g >
</g>
<g >
</g>
<g >
</g>
<g >
</g>
<g >
</g>
<g >
</g>
<g >
</g>
<g >
</g>
<g >
</g>
<g >
</g>
<g >
</g>
<g >
</g>
<g >
</g>
<g >
</g>
<g >
</g>
<g >
</g>
<g >
</g>
<g >
</g>
<g >
</g>
<g >
</g>
<g >
</g>
<g >
</g>
<g >
</g>
<g >
</g>
<g >
</g>
</g> 
</svg>
