  0
SECTION
  2
HEADER
  9
$ANGBASE
  50
0.0
  9
$ANGDIR
  70
1
  9
$MEASUREMENT
  70
1
  0
ENDSEC
  0
SECTION
  2
TABLES
  0
TABLE
  2
LTYPE
  70
4
  0
LTYPE
  5
40F
  2
CONTINUOUS
  70
0
  3
Solid line
  72
65
  73
0
  40
0.0
  0
LTYPE
  5
410
  2
DASHDOT
 70
0
  3
Dash Dot ____ _ ____ _
 72
65
 73
4
 40
2.0
 49
1.25
 49
-0.25
 49
0.25
 49
-0.25
  0
LTYPE
  5
411
  2
DASHED
 70
0
  3
Dashed __ __ __ __ __
 72
65
 73
2
 40
0.75
 49
0.5
 49
-0.25
  0
LTYPE
  5
43B
  2
DOTTED
 70
0
  3
Dotted .  .  .  .
 72
65
 73
2
 40
0.2
 49
0.0
 49
-0.2
  0
ENDTAB
  0
TABLE
  2
STYLE
  70
4
  0
STYLE
  2
KICAD
  70
0
  40
0
  41
1
  42
1
  50
0
  71
0
  3
isocp.shx
  0
STYLE
  2
KICADB
  70
0
  40
0
  41
1
  42
1
  50
0
  71
0
  3
isocp.shx
  0
STYLE
  2
KICADI
  70
0
  40
0
  41
1
  42
1
  50
15
  71
0
  3
isocp.shx
  0
STYLE
  2
KICADBI
  70
0
  40
0
  41
1
  42
1
  50
15
  71
0
  3
isocp.shx
  0
ENDTAB
  0
TABLE
  2
LAYER
  70
1
  0
LAYER
  2
BLACK
  70
0
  62
7
  6
CONTINUOUS
  0
ENDTAB
  0
ENDSEC
  0
SECTION
  2
ENTITIES
0
LINE
8
BLACK
6
CONTINUOUS
10
259.08
20
-52.07
11
259.08
21
-88.9
0
LINE
8
BLACK
6
CONTINUOUS
10
228.6
20
-90.17
11
265.43
21
-90.17
0
LINE
8
BLACK
6
CONTINUOUS
10
228.6
20
-152.4
11
228.6
21
-90.17
0
LINE
8
BLACK
6
CONTINUOUS
10
265.43
20
-90.17
11
265.43
21
-152.4
0
LINE
8
BLACK
6
CONTINUOUS
10
259.08
20
-88.9
11
196.85
21
-88.9
0
LINE
8
BLACK
6
CONTINUOUS
10
196.85
20
-88.9
11
196.85
21
-52.07
0
LINE
8
BLACK
6
CONTINUOUS
10
196.85
20
-52.07
11
259.08
21
-52.07
0
LINE
8
BLACK
6
CONTINUOUS
10
265.43
20
-152.4
11
228.6
21
-152.4
0
LINE
8
BLACK
6
CONTINUOUS
10
227.33
20
-152.4
11
190.5
21
-152.4
0
LINE
8
BLACK
6
CONTINUOUS
10
190.5
20
-152.4
11
190.5
21
-90.17
0
LINE
8
BLACK
6
CONTINUOUS
10
190.5
20
-90.17
11
227.33
21
-90.17
0
LINE
8
BLACK
6
CONTINUOUS
10
227.33
20
-90.17
11
227.33
21
-152.4
0
LINE
8
BLACK
6
CONTINUOUS
10
182.88
20
-52.07
11
182.88
21
-88.9
0
LINE
8
BLACK
6
CONTINUOUS
10
152.4
20
-90.17
11
189.23
21
-90.17
0
LINE
8
BLACK
6
CONTINUOUS
10
152.4
20
-152.4
11
152.4
21
-90.17
0
LINE
8
BLACK
6
CONTINUOUS
10
189.23
20
-90.17
11
189.23
21
-152.4
0
LINE
8
BLACK
6
CONTINUOUS
10
182.88
20
-88.9
11
120.65
21
-88.9
0
LINE
8
BLACK
6
CONTINUOUS
10
120.65
20
-88.9
11
120.65
21
-52.07
0
LINE
8
BLACK
6
CONTINUOUS
10
120.65
20
-52.07
11
182.88
21
-52.07
0
LINE
8
BLACK
6
CONTINUOUS
10
189.23
20
-152.4
11
152.4
21
-152.4
0
LINE
8
BLACK
6
CONTINUOUS
10
151.13
20
-152.4
11
114.3
21
-152.4
0
LINE
8
BLACK
6
CONTINUOUS
10
114.3
20
-152.4
11
114.3
21
-90.17
0
LINE
8
BLACK
6
CONTINUOUS
10
114.3
20
-90.17
11
151.13
21
-90.17
0
LINE
8
BLACK
6
CONTINUOUS
10
151.13
20
-90.17
11
151.13
21
-152.4
0
LINE
8
BLACK
6
CONTINUOUS
10
93.98
20
-52.07
11
93.98
21
-88.9
0
LINE
8
BLACK
6
CONTINUOUS
10
93.98
20
-88.9
11
31.75
21
-88.9
0
LINE
8
BLACK
6
CONTINUOUS
10
31.75
20
-88.9
11
31.75
21
-52.07
0
LINE
8
BLACK
6
CONTINUOUS
10
31.75
20
-52.07
11
93.98
21
-52.07
0
LINE
8
BLACK
6
CONTINUOUS
10
100.33
20
-152.4
11
63.5
21
-152.4
0
LINE
8
BLACK
6
CONTINUOUS
10
63.5
20
-152.4
11
63.5
21
-90.17
0
LINE
8
BLACK
6
CONTINUOUS
10
63.5
20
-90.17
11
100.33
21
-90.17
0
LINE
8
BLACK
6
CONTINUOUS
10
100.33
20
-90.17
11
100.33
21
-152.4
0
LINE
8
BLACK
6
CONTINUOUS
10
62.23
20
-90.17
11
62.23
21
-152.4
0
LINE
8
BLACK
6
CONTINUOUS
10
25.4
20
-90.17
11
62.23
21
-90.17
0
LINE
8
BLACK
6
CONTINUOUS
10
25.4
20
-152.4
11
25.4
21
-90.17
0
LINE
8
BLACK
6
CONTINUOUS
10
62.23
20
-152.4
11
25.4
21
-152.4
  0
ENDSEC
  0
EOF
